<svg xmlns="http://www.w3.org/2000/svg" viewBox="0 0 641.11 641.11"><title>Asset 104</title><g id="Layer_2" data-name="Layer 2"><g id="Layer_1-2" data-name="Layer 1"><rect width="641.11" height="641.11" transform="translate(0 641.11) rotate(-90)" fill="#f6b267"/><path d="M518.79,290.67c-10.32,77,56.49,114.26,35.3,192.78C538.33,541.84,494,548.72,495.71,597.5c.56,15.83,5.78,30.21,14,43.61H641.11v-498C590.1,159.83,527.72,224,518.79,290.67Z" fill="#f5845e"/><path d="M0,511.12c10.62,1.3,20.94.19,30-4.77,30.13-16.54,38.29-71.52,31.52-110-6.35-36.12-23-41.71-19.47-64.77,6.32-41.17,61.8-38.82,78.59-79.74,22.74-55.43-60.54-104.9-40.58-169C94.22,37.27,143.43,39.36,154.36,0H0Z" fill="#f89d66"/></g></g></svg>