<svg xmlns="http://www.w3.org/2000/svg" viewBox="0 0 641.7 641.7"><title>Asset 111</title><g id="Layer_2" data-name="Layer 2"><g id="Layer_1-2" data-name="Layer 1"><rect width="641.7" height="641.7" fill="#f3ead6"/><path d="M641.7,437.84a90.91,90.91,0,0,0-25.13-19.13c-15.41-7.91-32.77-8.59-67.49-10-3-.12-8.71-.24-14,3.17a22.39,22.39,0,0,0-6.79,7.25c-5.69,8.77-8.53,13.16-11.78,21.29-7.34,18.38-48.79,17.68-75.19,32.61-21.43,12.12-29.39,32.52-43,67.5-14,36-17,69.9-15.62,101.14H641.7Z" fill="#f89f80"/><path d="M138.78,418.71c-32.33-36.41-89.53-51-138.78-43V533.05c35.46,25.87,54.4,40.68,61.32,51.44,12,18.66,15.29,38.35,14.9,57.21h111.6c-.15-14.38-3.7-34.74-11-72.15C158.85,477.31,149.64,430.94,138.78,418.71Z" fill="#fcccb0"/><path d="M174.11,464.91c3.8-45.79,47.63-86,73.38-78.81,18.48,5.14,31.61,35.79,35.33,55.71,2.78,14.9,1,27.48,10.87,42.13,7.9,11.7,14.79,12.19,14.95,17.66.51,17.82-71.32,56.66-111.43,25.82C171.15,507.38,173.72,469.63,174.11,464.91Z" fill="#c0dad9"/><path d="M338.25,0c31.62,16.45,60.2,39.39,72.31,73.55,5.3,15,6,28.06,19,40.77,31.86,31.14,77.32,1.16,142.68,19,37.37,10.21,55,28.87,69.44,40.54V0Z" fill="#fbbe75"/><g opacity="0.51"><path d="M131,179.52c28.05,15,57.05,30.56,93.65,21.34,27.31-6.88,42.51-23.33,55.92-37.84,13.24-14.32,24.68-26.7,44.37-26,26.53.94,41.91,24.58,59.72,51.95,13.44,20.65,28.67,44.06,51.17,60.65a129.1,129.1,0,0,0,41.21,20c17.64,5,37.8,7.19,59.92,6.36,24.74-.94,52.65-5.62,83-13.92q10.65-2.91,21.81-6.46v-2.05C602.43,266,567.36,272.88,536.86,274c-40.85,1.54-74.46-7.19-99.91-26-22.23-16.39-37.35-39.63-50.7-60.15C368.14,160.1,352.51,136.07,325,135.1c-20.57-.73-32.29,11.94-45.85,26.62-13.23,14.31-28.22,30.53-55,37.27-35.88,9-64.55-6.32-92.27-21.17-12.53-6.71-25.49-13.65-38.84-18.14-15-5.05-29-6.42-42.75-4.19C32.71,158.35,15.81,167.12,0,181.6v2.62c15.91-14.93,32.91-23.95,50.6-26.83C80.58,152.52,105.05,165.63,131,179.52Z" fill="#6d6e71"/></g><g opacity="0.51"><path d="M22.79,201.28c15.29-14.92,30.53-22.38,45.31-22.13,10.18.16,16,3.77,22.77,7.95s14.72,9.11,28.75,11.06a68.36,68.36,0,0,0,35.28-4c10.35-4,19.76-10,29.71-16.34,17.59-11.23,37.53-23.95,67.06-27.19,8.23-.9,51.2-4.16,89.06,20.24,25.77,16.61,33.6,35.84,41.17,54.45,6.77,16.65,13.18,32.37,32.25,43.41,11,6.34,28.63,7,59.13,2.11,27.93-4.46,63.82-13,119.59-26.46l48.83-11.83v-2l-49.28,11.94c-55.73,13.48-91.58,22-119.44,26.43-29.63,4.72-47.47,4.14-57.87-1.87-18.5-10.71-24.78-26.14-31.43-42.48-7.32-18-15.63-38.4-41.91-55.34-38.41-24.75-82-21.44-90.31-20.53-30,3.29-50.11,16.14-67.88,27.48-20,12.75-37.24,23.76-63.69,20.09-13.63-1.9-21.27-6.62-28-10.79s-13-8.07-23.75-8.25a50.37,50.37,0,0,0-21.41,4.64c-8.32,3.72-16.83,9.8-25.28,18A188.74,188.74,0,0,0,0,225.51v3.35A191.27,191.27,0,0,1,22.79,201.28Z" fill="#6d6e71"/></g><g id="_2036430232" data-name=" 2036430232" opacity="0.44"><polygon points="566.59 638.25 566.59 638.25 566.59 638.25 566.59 638.25" fill="#fff" fill-rule="evenodd"/><path d="M566.59,638.25h0c6.55,1.06,10.49,3.12,17.68,3.45h4l1.21-.06c19.2-1.22,29.42-16.87,36.84-23.22a101.37,101.37,0,0,1,8.15-6.76c4.51-3.11,7.73-1.11,7-6.51-8.88,1-50.57,8-59.35,11.41-8.08,3.11-6.77,4.71-12.74,8.5,0-4.61,9-33.9,9.79-46.68,9.13-2.77,17.16-2.32,27-4.28,33.78-6.75,26.43-32,28.65-43.75.87-4.57,2.89-5.52,2.2-10.73-3.12.51-10.72,7.83-14.93,10.08-5.66,3-11,6.07-16.74,9-15.06,7.83-17.44,20.18-23.48,24.85-1.57-18,2.75-18.93-3.57-45.18-3.06-12.7-2.46-7.22.75-19,8.77-32.1-8.79-41.56-36.87-51.51-6.69-2.38-9.32-5.16-15-8.33l-2.23,3c2.53,13.62-2.32,26.38,5.28,39.32,8.11,13.82,10.48,13.91,23.77,21.19,19.18,10.5,19.64,6.73,22.77,22.95,2.82,14.58,2.18,25.12,1.77,39.5-3.58-3.94-4.7-8-10.21-12.9-6.66-5.94-20.16-13.19-26.4-17.52-2.94-2-10.05-7.66-13-7.74-1.54,3.39.61,5.24.72,9.87.3,11.87,2.88,21.93,11.05,30.26,9.58,9.77,16.6,8.65,25.93,10.32,6.62,1.18,4.3.46,10.08-.72-.72,7.1-9.13,49.53-11.83,53.44-2.66-2.17-2.31-4.27-4.7-7.13-6.48-7.76-26.23-13.22-35.59-17.22-2.56-1.09-12.59-6.43-13.68-6.47-1.19,3.52,1.06,4.58,3,8.12,1.61,3,3.15,5.56,3.94,9,1.7,7.52,1.4,13.2,8,18.15,14.22,10.68,32.81,1.32,37.86.23a26.43,26.43,0,0,1,.06,6.47h2.5C566.28,640.5,566.43,639.34,566.59,638.25Zm60-107.37c-1.12,2.44-13.92,15.83-16.78,18.55-5.14,4.86-16.7,10.79-23,13.26C589.54,549.35,615.16,535.54,626.6,530.88Zm-19.79,24c8.55-5.65,15.55-18.09,23.6-22.16.67,13.24,1.88,25.8-10.8,32.68-14.25,7.72-25,5.67-39.26,9.67h0C582.3,566.13,599.25,559.86,606.81,554.86Zm-36.57-47.73h0c-6.46-1.53-26.33-13.2-30.42-17.55-8.8-9.38-14.59-25.52-10.4-37.81,7.58,4,35.87,41.5,40.82,55.36ZM532.46,448c2.94.6,6.83,2.78,10.23,3.94,14,4.82,37.17,14.87,35.86,32.46-.33,4.36-1.93,17.29-5.3,20.69C564.31,481.8,534.72,454,532.46,448ZM573.1,574.19c-29.59,3.66-45.61-24.42-39.87-40.25,9,3.22,11.73,16.4,17.58,24,10,12.91,18.69,10.74,22.29,16.27Zm-15.72-12.93c-5.41-4.3-12-15.67-12.46-20.64,3.66,1.21,15,9.18,18.62,11.89,7.49,5.68,10.6,10.06,13.9,19.28C572.09,571,561.6,564.6,557.38,561.26Zm68.36,53.79c-4.85,6.68-13.35,15.32-21.15,18.71-8.48,3.68-22.67,7.21-30.79,2.55l26.32-11.43h0c2.88-1.75,2.18-2.2,5.79-3.65C611.21,619.11,622.19,614,625.74,615.05Zm-51.54,9.67c2.66-2.46,8.65-5,12.11-6.19,8.68-2.86,23.84-4.23,33.62-6.2-1.58,2-4.93,2.93-6.91,3.8a68.07,68.07,0,0,1-6.36,2.48c-5.53,1.86-26.24,15.66-38.32,15.86C566.89,631.24,572.06,626.69,574.2,624.72Zm-43,9.49c-8-2.58-10.13-12.47-10.91-20.35,3.77,1.93,5,4,8,6.74,5.43,5,24.6,9.88,27.56,14C546.46,637.13,540.06,637.08,531.16,634.21Zm6.52-11.29c-5.3-2.44-6-2.83-10.36-7-4-3.81-7.37-4.1-9.37-8.64,6.18.79,18.85,6.54,25.07,9,7.94,3.09,16.66,7.18,18.21,16.58C554.38,631.55,543.92,625.8,537.68,622.92Z" fill="#fff" fill-rule="evenodd"/><polygon points="570.24 507.13 570.24 507.13 570.24 507.13 570.24 507.13" fill="#fff" fill-rule="evenodd"/><path d="M617.2,554l-2.39,0-1.1,6.93c4.54-2-1.87-.27,4.11-3.09.4-2.2,1.59-5.46.5-7.12C616.66,551.91,617.25,550.32,617.2,554Z" fill="#fff" fill-rule="evenodd"/><path d="M538.19,479c1-1,2.36-6.28,2.49-7.59C536.13,469.51,537.29,477.26,538.19,479Z" fill="#fff" fill-rule="evenodd"/><path d="M566.56,480.25c1.69-.86,1.47-2.56,1.92-4.78.7-3.43,1.69-3.6-.16-5.94C567,472.11,566.44,477,566.56,480.25Z" fill="#fff" fill-rule="evenodd"/><path d="M563.8,476.25c1.29-2,2.43-6.24,1-8.19l-1.54.43C562.89,470.87,562.73,474.57,563.8,476.25Z" fill="#fff" fill-rule="evenodd"/><path d="M542.92,483.14a8.73,8.73,0,0,0-.59-8.75C541.2,476.65,542.55,480.58,542.92,483.14Z" fill="#fff" fill-rule="evenodd"/><path d="M528.06,627.27c2.36,2.63,3.37,1,2.88-1.75C529.16,625.76,528.73,625.52,528.06,627.27Z" fill="#fff" fill-rule="evenodd"/><path d="M531.9,629c1.62,2,1.57,2.23,2.28-.39C532.31,627.91,533.5,627.85,531.9,629Z" fill="#fff" fill-rule="evenodd"/></g><g id="_2036430232-2" data-name=" 2036430232" opacity="0.44"><polygon points="471.88 539.28 471.88 539.28 471.88 539.28 471.88 539.28" fill="#fff" fill-rule="evenodd"/><path d="M474.48,622c3,.65,13.8,6.51,22.28-.54,3.93-3.27,3.82-6.94,4.9-11.82a24.58,24.58,0,0,1,2.41-5.86c1.15-2.31,2.49-3,1.83-5.28-.64,0-6.61,3.59-8.12,4.33-5.55,2.68-17.23,6.41-21.12,11.49-1.44,1.88-1.26,3.23-2.85,4.66-1.54-2.5-6.05-29.83-6.4-34.41,3.39.7,2,1.19,5.92.36,5.51-1.18,9.63-.52,15.37-6.94,4.9-5.47,6.52-12,6.82-19.67.11-3,1.39-4.21.52-6.38-1.76.08-6,3.78-7.75,5.14-3.71,2.86-11.74,7.68-15.72,11.59-3.29,3.24-4,5.86-6.14,8.44-.09-9.28-.36-16.09,1.45-25.54,2-10.52,2.25-8.08,13.64-15.07,7.9-4.84,9.3-4.92,14.21-13.94,4.61-8.44,1.89-16.64,3.52-25.46l-1.29-1.9c-3.4,2.11-5,3.94-8.94,5.54-16.62,6.72-27.06,13-22.23,33.67,1.76,7.56,2.17,4,.24,12.25-4,17-1.46,17.61-2.57,29.24-3.51-3-4.78-10.92-13.56-15.82-3.33-1.86-6.45-3.77-9.76-5.67-2.45-1.4-6.85-6-8.68-6.36-.45,3.38.72,4,1.18,6.92,1.19,7.57-3.4,24,16.41,28,5.77,1.17,10.5.79,15.85,2.48.32,8.25,5.3,27.09,5.27,30.07-3.47-2.39-2.69-3.44-7.41-5.36-5.13-2.09-29.59-6.19-34.8-6.76-.51,3.5,1.4,2.17,4,4.14a57.29,57.29,0,0,1,4.73,4.28c4.3,4,10.15,14,21.44,14.62,6.36.33,8.8-1.51,13.52-2.43h0c.54,4.81,1.07,11.29,1.28,17.73h1.56c-.11-3.59-.29-6.94-.5-9.58C474.74,628.69,474,625.37,474.48,622Zm19.08-1a20.68,20.68,0,0,1-14.48.51c1.78-2.69,13.11-6,16.36-9.34,1.79-1.8,2.51-3.15,4.75-4.43C499.65,612.83,498.31,619.24,493.56,621Zm-6.8-11.51c3.69-1.62,11.21-5.47,14.85-6-1.23,2.95-3.24,3.17-5.6,5.68a16.51,16.51,0,0,1-6.17,4.64c-3.7,1.93-9.92,5.75-14,6.63C476.88,614.29,482.06,611.56,486.76,609.48Zm3.2-81.86c-2.44,2.85-14.26,10.6-18.08,11.66h0c3.06-9,20.1-33.55,24.6-36.2C498.82,511,495.24,521.47,490,527.62Zm-22.73-2.92c-.59-11.35,13.14-18.09,21.44-21.34,2-.79,4.32-2.24,6.06-2.66-1.39,3.85-19.09,22.15-24.6,37.32C468.18,535.86,467.38,527.51,467.23,524.7Zm-5.66,50.66c-3.71-1.54-10.45-5.24-13.42-8.34-1.66-1.72-9-10.24-9.68-11.81C445.15,558.11,460.09,566.76,461.57,575.36Zm3.66,7.91c-8.38-2.43-14.71-1-23-5.84-7.39-4.31-6.55-12.44-6-21,4.69,2.55,8.68,10.51,13.66,14.08,4.39,3.15,14.3,7,15.36,12.76Zm28.15-27c3.21,10.17-6.5,28.48-23.88,26.42h0c2.18-3.61,7.28-2.3,13.28-10.74C486.31,566.94,488.05,558.39,493.38,556.22Zm-18,12.32c2.14-1.8,8.92-7.06,11.08-7.88-.32,3.21-4.31,10.63-7.55,13.46-2.51,2.21-8.75,6.42-11.91,7C469,575.14,470.88,572.28,475.35,568.54Zm-25,52.93c-4.56-2.12-9.47-7.61-12.26-11.87,2.1-.71,8.52,2.47,11.61,3.78,2.11.9,1.7,1.2,3.37,2.3h0l15.37,7.11C463.61,625.89,455.3,623.76,450.35,621.47Zm21.32.08c-7.11,0-19.15-8.71-22.38-9.85a37.8,37.8,0,0,1-3.72-1.54c-1.16-.54-3.11-1.12-4-2.38,5.74,1.17,14.65,1.9,19.72,3.66,2,.7,5.53,2.31,7.07,3.86C469.57,616.56,472.56,619.45,471.67,621.55Z" fill="#fff" fill-rule="evenodd"/><polygon points="472.67 623.97 472.67 623.97 472.67 623.97 472.67 623.97" fill="#fff" fill-rule="evenodd"/><path d="M434.48,638.45a23.84,23.84,0,0,1,4.87,3.25h2.31l-.58-.37c1-.53.25-.4,1.44-.18a6,6,0,0,1,1,.44l.21.11h4.09l-10.56-5.09c-4.12-1.26-7.72-3.43-5.84,1.29a19,19,0,0,0,2.19,3.8h2.57A9.09,9.09,0,0,1,434.48,638.45Z" fill="#fff" fill-rule="evenodd"/><path d="M443.13,568c-.66,1.09,0,3.18.22,4.6,3.49,1.76-.26.68,2.39,1.95l-.58-4.47h-1.41C443.76,567.68,444.1,568.7,443.13,568Z" fill="#fff" fill-rule="evenodd"/><path d="M489.65,515.88c.06.85.81,4.22,1.38,4.88C491.58,519.64,492.35,514.61,489.65,515.88Z" fill="#fff" fill-rule="evenodd"/><path d="M473.41,515c-1.12,1.53-.54,1.63-.17,3.84.25,1.43.1,2.54,1.09,3.07A18.45,18.45,0,0,0,473.41,515Z" fill="#fff" fill-rule="evenodd"/><path d="M476.4,514.24l-.9-.27c-.87,1.28-.25,4,.49,5.29C476.64,518.16,476.58,515.77,476.4,514.24Z" fill="#fff" fill-rule="evenodd"/><path d="M488.65,517.83a6.13,6.13,0,0,0-.44,5.66C488.45,521.83,489.29,519.28,488.65,517.83Z" fill="#fff" fill-rule="evenodd"/><path d="M493.78,615.37c-.32,1.8.26,2.83,1.67,1.1C495.07,615.35,494.82,615.51,493.78,615.37Z" fill="#fff" fill-rule="evenodd"/><path d="M491.84,617.42c.38,1.69.36,1.52,1.33.23C492.24,616.91,493,616.93,491.84,617.42Z" fill="#fff" fill-rule="evenodd"/></g></g></g></svg>