<svg xmlns="http://www.w3.org/2000/svg" viewBox="0 0 637.31 637.31"><title>Asset 105</title><g id="Layer_2" data-name="Layer 2"><g id="Layer_1-2" data-name="Layer 1"><rect width="637.31" height="637.31" transform="translate(0 637.31) rotate(-90)" fill="#eed5e7"/><path d="M567,289c-3.22,128.38,34.54,188.42,0,220-24.94,22.79-71.32,15.87-76.93,40.49-3.07,13.47,9.36,22,4.05,33.74-7.8,17.26-38.05,6.35-54,24.29-7.62,8.58-7.6,18.83-6.26,29.86H637.31V127.5a123.44,123.44,0,0,0-28.47,17C598.59,152.88,569.73,180.19,567,289Z" fill="#e1b3d3"/><path d="M0,231.28c8.16,7.84,15.92,14.69,27.16,13.13,21.45-3,23.78-32.13,49.94-37.79,19.3-4.18,27.26,9.71,43.18,9.45,42.81-.7,101.27-103,83.68-199.74-.61-3.36-1.7-9.06-3.63-16.33H0Z" fill="#cbc0d2"/><path d="M593.92,204.1c-9.08-3.4-14.85-7.85-16.27-12.53-2.32-7.69,6.7-16.95,16.25-26.75,10.91-11.2,22.2-22.78,18.29-33.83-2.64-7.45-10.64-9.68-19.11-12.05-9.11-2.55-19.43-5.43-25.64-15.14-8.29-13-4.25-29.84-1-43.41,2.51-10.47,4.49-18.75-.24-21.68-3.71-2.31-8.19.68-13.86,4.47-6.58,4.39-14.76,9.85-24.9,9.19-14.19-.92-28.27-13.93-39.65-36.63A102.15,102.15,0,0,1,481.53,0h-1.32a101.73,101.73,0,0,0,6.43,16.31,110,110,0,0,0,12.95,20.4c8.78,10.61,18.12,16.31,27.76,16.93,10.57.69,18.95-4.9,25.68-9.4,5.3-3.53,9.48-6.32,12.49-4.45,3.94,2.45,2.06,10.33-.33,20.3-3.3,13.81-7.4,31,1.18,44.4,6.47,10.12,17,13.07,26.36,15.68,8.5,2.37,15.84,4.42,18.26,11.25,3.65,10.29-7.36,21.59-18,32.51-8.52,8.74-16.62,17.06-17,24.6a10.13,10.13,0,0,0,.41,3.41c1.56,5.14,7.45,9.76,17.05,13.36,11.84,4.43,27.45,6.64,43.83,6.29v-1.36C619.92,210.58,604.36,208,593.92,204.1Z" fill="#cbc0d2"/><path d="M612.29,226c-9.52-6.81-25.24-20.58-23.7-36.33,1.07-11,10.21-18.55,18.27-25.2,7.07-5.84,13.18-10.88,11.68-16.86-1-4-4.69-5.31-9.36-7s-10.41-3.73-16.46-9c-15.91-14-17.83-36.4-18-42.94-.43-13.48,3.77-23.81,6.83-31.35,3-7.33,5.14-12.63,1.63-16.61-2.37-2.69-5.17-2.55-14.46-2.09-4.7.24-11.14.56-20.09.63-16.66.15-24.25.11-29.68-2.34C506.06,31,498.35,17.26,496.4,6.18A36.41,36.41,0,0,1,495.84,0h-1.27a38,38,0,0,0,.57,6.4c2,11.41,10,25.6,23.25,31.58,5.91,2.67,14.54,2.59,30.22,2.46,9-.08,15.42-.4,20.13-.63,8.82-.44,11.48-.58,13.44,1.65,3,3.39,1.06,8.13-1.85,15.29-3.11,7.65-7.37,18.12-6.93,31.87.22,6.67,2.18,29.53,18.48,43.86,6.23,5.48,12.13,7.59,16.87,9.29s7.72,2.77,8.55,6.1c1.31,5.2-4.51,10-11.25,15.56-8.25,6.81-17.6,14.53-18.73,26.07,0,.4-.07.8-.09,1.19-.73,15.88,14.82,29.5,24.31,36.3a75.05,75.05,0,0,0,25.77,11.59v-1.39A74.18,74.18,0,0,1,612.29,226Z" fill="#cbc0d2"/><path d="M596.09,224.71c-6.32-10.55-2.36-26.57,4-37,3.74-6.13,8.15-9.73,11.7-12.63,4.09-3.33,7.31-6,7.47-10.66.21-6.76-6.17-11.3-16.74-18.81-1.74-1.24-3.54-2.51-5.47-3.91-28.35-20.56-42.58-30.88-45.95-42.78-3.06-10.78,1.35-20.08,5.25-28.29,3.76-7.94,7.31-15.43,2.86-22.39-3.41-5.33-8.89-6.42-15.23-7.67-7.07-1.4-15.08-3-22.73-10.84-2-2-11.78-12.81-10.75-26.13A25.91,25.91,0,0,1,511,0h-1.3a24.72,24.72,0,0,0-.52,3.51c0,.28,0,.55-.05.82-.62,13.48,9.16,24.24,11.16,26.3,7.92,8.13,16.14,9.76,23.39,11.2,6.06,1.2,11.29,2.23,14.41,7.11,4.07,6.36.82,13.21-3,21.15-4,8.41-8.51,18-5.32,29.19,3.5,12.32,17.85,22.73,46.44,43.46,1.93,1.4,3.73,2.68,5.47,3.92,10.22,7.26,16.4,11.65,16.21,17.72a.66.66,0,0,0,0,.14c-.19,4-3.05,6.37-7,9.59-3.63,2.95-8.14,6.63-12,12.95-6.54,10.74-10.58,27.31-4,38.3,5.63,9.4,17.29,12.22,26.08,12.94a76.92,76.92,0,0,0,16.23-.54v-1.32C621.27,238.64,603.16,236.51,596.09,224.71Z" fill="#cbc0d2"/><path d="M600.14,245.24c-2.18-5.07.75-10.47,4.46-17.32,4.69-8.66,10.53-19.45,8.8-34.58-1-9-4-13.26-7.83-18.71a89.53,89.53,0,0,1-12.51-24.25c-6.63-18.89-9.15-37.79-7.5-56.15a98.93,98.93,0,0,1,5.12-24c1.88-5.74,3-9.2.55-13.23-6.58-10.78-28-7.46-48.79-4.25-18.93,2.93-38.5,6-43.77-2.73-7.05-11.62,14.11-37.23,22.08-46.88C521.62,2,522.5,1,523.38,0h-1.69c-.64.75-1.29,1.51-1.93,2.28-6.81,8.25-23.1,28-23.73,41.43a12,12,0,0,0,1.55,6.92c5.71,9.42,24.82,6.46,45.05,3.33s41.38-6.41,47.51,3.66c2.16,3.52,1.15,6.59-.67,12.17a99.3,99.3,0,0,0-5.17,24.32c-1.67,18.55.87,37.62,7.55,56.69a90.13,90.13,0,0,0,12.68,24.55c3.84,5.52,6.62,9.5,7.61,18.13,1.68,14.74-4.06,25.33-8.66,33.83-3.88,7.15-6.94,12.8-4.51,18.43,3.47,8.07,17.67,13.18,38.34,13.93v-1.28C617.17,257.67,603.41,252.85,600.14,245.24Z" fill="#cbc0d2"/></g></g></svg>